ply
format ascii 1.0
comment Created by Blender 2.57 (sub 1) - www.blender.org, source file: ''
element vertex 48
property float x
property float y
property float z
property float nx
property float ny
property float nz
element face 20
property list uchar uint vertex_indices
end_header
0.117851 0.204124 0.333333 0.000000 -0.000000 1.000000 
-0.235702 0.000000 0.333333 0.000000 -0.000000 1.000000 
0.117851 -0.204124 0.333333 0.000000 -0.000000 1.000000 
0.353553 -0.204124 -0.000000 0.942809 0.000000 -0.333333 
0.235702 0.000000 -0.333333 0.942809 0.000000 -0.333333 
0.353553 0.204124 -0.000000 0.942809 0.000000 -0.333333 
-0.117851 0.204124 -0.333333 -0.471405 0.816497 -0.333333 
-0.353553 0.204124 -0.000000 -0.471405 0.816497 -0.333333 
0.000000 0.408248 -0.000000 -0.471405 0.816497 -0.333333 
-0.117851 -0.204124 -0.333333 -0.471405 -0.816497 -0.333333 
0.000000 -0.408248 -0.000000 -0.471405 -0.816497 -0.333333 
-0.353553 -0.204124 -0.000000 -0.471405 -0.816497 -0.333333 
0.117851 0.204124 0.333333 0.471405 0.816497 0.333333 
0.353553 0.204124 -0.000000 0.471405 0.816497 0.333333 
0.000000 0.408248 -0.000000 0.471405 0.816497 0.333333 
-0.235702 0.000000 0.333333 -0.942809 0.000000 0.333333 
-0.353553 0.204124 -0.000000 -0.942809 0.000000 0.333333 
-0.353553 -0.204124 -0.000000 -0.942809 0.000000 0.333333 
0.117851 -0.204124 0.333333 0.471405 -0.816497 0.333333 
0.000000 -0.408248 -0.000000 0.471405 -0.816497 0.333333 
0.353553 -0.204124 -0.000000 0.471405 -0.816497 0.333333 
0.235702 0.000000 -0.333333 0.000000 0.000000 -1.000000 
-0.117851 -0.204124 -0.333333 0.000000 0.000000 -1.000000 
-0.117851 0.204124 -0.333333 0.000000 0.000000 -1.000000 
-0.353553 -0.204124 -0.000000 -0.408248 -0.707107 0.577350 
0.000000 -0.408248 -0.000000 -0.408248 -0.707107 0.577350 
0.117851 -0.204124 0.333333 -0.408248 -0.707107 0.577350 
-0.235702 0.000000 0.333333 -0.408248 -0.707107 0.577350 
0.000000 -0.408248 -0.000000 0.408248 -0.707107 -0.577350 
-0.117851 -0.204124 -0.333333 0.408248 -0.707107 -0.577350 
0.235702 0.000000 -0.333333 0.408248 -0.707107 -0.577350 
0.353553 -0.204124 -0.000000 0.408248 -0.707107 -0.577350 
-0.117851 -0.204124 -0.333333 -0.816497 -0.000000 -0.577350 
-0.353553 -0.204124 -0.000000 -0.816497 -0.000000 -0.577350 
-0.353553 0.204124 -0.000000 -0.816497 -0.000000 -0.577350 
-0.117851 0.204124 -0.333333 -0.816497 0.000000 -0.577350 
-0.235702 0.000000 0.333333 -0.408248 0.707107 0.577350 
0.117851 0.204124 0.333333 -0.408248 0.707107 0.577350 
0.000000 0.408248 -0.000000 -0.408248 0.707107 0.577350 
-0.353553 0.204124 -0.000000 -0.408248 0.707107 0.577350 
-0.117851 0.204124 -0.333333 0.408248 0.707107 -0.577350 
0.000000 0.408248 -0.000000 0.408248 0.707107 -0.577350 
0.353553 0.204124 -0.000000 0.408248 0.707107 -0.577350 
0.235702 0.000000 -0.333333 0.408248 0.707107 -0.577350 
0.117851 0.204124 0.333333 0.816497 -0.000000 0.577350 
0.117851 -0.204124 0.333333 0.816497 -0.000000 0.577350 
0.353553 -0.204124 -0.000000 0.816497 -0.000000 0.577350 
0.353553 0.204124 -0.000000 0.816497 0.000000 0.577350 
3 0 1 2
3 3 4 5
3 6 7 8
3 9 10 11
3 12 13 14
3 15 16 17
3 18 19 20
3 21 22 23
3 24 25 26
3 24 26 27
3 28 29 30
3 28 30 31
3 32 33 34
3 32 34 35
3 36 37 38
3 36 38 39
3 40 41 42
3 40 42 43
3 44 45 46
3 44 46 47
