ply
format ascii 1.0
comment Created by Blender 2.58 (sub 1) - www.blender.org, source file: ''
element vertex 26
property float x
property float y
property float z
property float nx
property float ny
property float nz
element face 12
property list uchar uint vertex_indices
end_header
2.439959 1.000000 1.000000 0.000000 1.000000 0.000000 
2.439957 1.000000 -1.000000 0.000000 1.000000 0.000000 
-2.439957 1.000000 1.000000 0.000000 1.000000 0.000000 
-2.439956 1.000000 -1.000000 0.000000 1.000000 0.000000 
-2.439958 -1.000000 -1.000000 -1.000000 0.000001 -0.000000 
-2.439958 -1.000000 1.000000 -1.000000 0.000001 -0.000000 
-2.439957 1.000000 1.000000 -1.000000 0.000001 -0.000000 
-2.439956 1.000000 -1.000000 -1.000000 0.000001 -0.000000 
2.439957 -1.000000 -1.000000 -0.000000 -1.000000 -0.000000 
2.439956 -1.000001 1.000000 -0.000000 -1.000000 -0.000000 
-2.439958 -1.000000 -1.000000 -0.000000 -1.000000 -0.000000 
-2.439958 -1.000000 1.000000 -0.000000 -1.000000 0.000000 
2.439957 1.000000 -1.000000 1.000000 0.000000 -0.000001 
2.439959 1.000000 1.000000 1.000000 0.000000 -0.000001 
2.439957 -1.000000 -1.000000 1.000000 0.000000 -0.000001 
2.439959 1.000000 1.000000 1.000000 -0.000001 0.000001 
2.439956 -1.000001 1.000000 1.000000 -0.000001 0.000001 
2.439957 -1.000000 -1.000000 1.000000 -0.000001 0.000001 
2.439959 1.000000 1.000000 -0.000000 -0.000000 1.000000 
-2.439957 1.000000 1.000000 -0.000000 -0.000000 1.000000 
2.439956 -1.000001 1.000000 -0.000000 -0.000000 1.000000 
-2.439958 -1.000000 1.000000 0.000000 -0.000000 1.000000 
2.439957 1.000000 -1.000000 0.000000 0.000000 -1.000000 
2.439957 -1.000000 -1.000000 0.000000 0.000000 -1.000000 
-2.439956 1.000000 -1.000000 0.000000 0.000000 -1.000000 
-2.439958 -1.000000 -1.000000 0.000000 -0.000000 -1.000000 
3 0 1 2
3 1 3 2
3 4 5 6
3 4 6 7
3 8 9 10
3 9 11 10
3 12 13 14
3 15 16 17
3 18 19 20
3 19 21 20
3 22 23 24
3 23 25 24
