ply
format ascii 1.0
comment Created by Blender 2.60 (sub 7) - www.blender.org, source file: ''
element vertex 58
property float x
property float y
property float z
property float nx
property float ny
property float nz
property uchar red
property uchar green
property uchar blue
element face 24
property list uchar uint vertex_indices
end_header
2.439959 1.000000 1.000000 -0.000000 1.000000 0.000000 1.0 0.0 0.0
2.439957 1.000000 -1.000000 -0.000000 1.000000 0.000000 1.0 0.0 0.0
-2.439957 1.000000 1.000000 -0.000000 1.000000 0.000000 1.0 0.0 0.0
-2.439956 1.000000 -1.000000 -0.000000 1.000000 0.000000 1.0 0.0 0.0
-2.439958 -1.000000 -1.000000 -1.000000 0.000001 0.000000 1.0 0.0 0.0
-2.439958 -1.000000 1.000000 -1.000000 0.000001 0.000000 1.0 0.0 0.0
-2.439957 1.000000 1.000000 -1.000000 0.000001 0.000000 0.0 0.0 1.0
-2.439956 1.000000 -1.000000 -1.000000 0.000001 -0.000000 0.0 0.0 1.0
2.439957 -1.000000 -1.000000 0.000000 -1.000000 -0.000000 0.0 0.0 1.0
2.439956 -1.000001 1.000000 0.000000 -1.000000 -0.000000 0.0 0.0 1.0
-2.439958 -1.000000 -1.000000 0.000000 -1.000000 -0.000000 0.0 0.0 1.0
-2.439958 -1.000000 1.000000 -0.000000 -1.000000 0.000000 0.0 0.0 1.0
2.439957 1.000000 -1.000000 1.000000 0.000000 -0.000001 1.0 1.0 1.0
2.439959 1.000000 1.000000 1.000000 0.000000 -0.000001 1.0 1.0 1.0
2.439957 -1.000000 -1.000000 1.000000 0.000000 -0.000001 1.0 1.0 1.0
2.439959 1.000000 1.000000 1.000000 -0.000002 0.000000 1.0 1.0 1.0
2.439956 -1.000001 1.000000 1.000000 -0.000002 0.000000 1.0 1.0 1.0
2.439957 -1.000000 -1.000000 1.000000 -0.000002 0.000000 1.0 1.0 1.0
2.439959 1.000000 1.000000 0.000000 -0.000000 1.000000 1.0 1.0 1.0
-2.439957 1.000000 1.000000 0.000000 -0.000000 1.000000 1.0 1.0 1.0
2.439956 -1.000001 1.000000 0.000000 -0.000000 1.000000 1.0 1.0 1.0
-2.439958 -1.000000 1.000000 0.000000 -0.000000 1.000000 1.0 1.0 1.0
2.439957 1.000000 -1.000000 0.000000 0.000000 -1.000000 1.0 1.0 1.0
2.439957 -1.000000 -1.000000 0.000000 0.000000 -1.000000 1.0 1.0 1.0
-2.439956 1.000000 -1.000000 0.000000 0.000000 -1.000000 1.0 1.0 1.0
-2.439958 -1.000000 -1.000000 0.000000 -0.000000 -1.000000 1.0 1.0 1.0
2.380191 -0.975505 -0.975505 0.000000 -0.000000 -1.000000 1.0 1.0 1.0
-2.380192 -0.975505 -0.975505 0.000000 -0.000000 -1.000000 1.0 1.0 1.0
-2.380190 0.975506 -0.975505 0.000000 -0.000000 -1.000000 1.0 1.0 1.0
2.380191 0.975505 -0.975505 0.000000 0.000000 -1.000000 1.0 1.0 1.0
-2.380191 0.975505 0.975505 0.000000 -0.000000 1.000000 1.0 1.0 1.0
-2.380192 -0.975505 0.975505 0.000000 -0.000000 1.000000 1.0 1.0 1.0
2.380190 -0.975506 0.975505 0.000000 -0.000000 1.000000 1.0 1.0 1.0
2.380193 0.975505 0.975505 0.000000 -0.000000 1.000000 1.0 1.0 1.0
2.380193 0.975505 0.975505 1.000000 -0.000002 0.000001 1.0 1.0 1.0
2.380190 -0.975506 0.975505 1.000000 -0.000002 0.000001 1.0 1.0 1.0
2.380191 -0.975505 -0.975505 1.000000 -0.000002 0.000001 1.0 1.0 1.0
2.380191 0.975505 -0.975505 1.000000 0.000000 -0.000001 1.0 1.0 1.0
2.380193 0.975505 0.975505 1.000000 0.000000 -0.000001 1.0 1.0 1.0
2.380191 -0.975505 -0.975505 1.000000 0.000000 -0.000001 1.0 1.0 1.0
2.380190 -0.975506 0.975505 -0.000000 -1.000000 0.000000 1.0 1.0 1.0
-2.380192 -0.975505 0.975505 -0.000000 -1.000000 0.000000 1.0 1.0 1.0
-2.380192 -0.975505 -0.975505 -0.000000 -1.000000 0.000000 1.0 1.0 1.0
2.380191 -0.975505 -0.975505 0.000000 -1.000000 -0.000001 1.0 1.0 1.0
2.380190 -0.975506 0.975505 0.000000 -1.000000 -0.000001 1.0 1.0 1.0
-2.380192 -0.975505 -0.975505 0.000000 -1.000000 -0.000001 1.0 1.0 1.0
-2.380192 -0.975505 -0.975505 -1.000000 0.000001 -0.000001 1.0 1.0 1.0
-2.380191 0.975505 0.975505 -1.000000 0.000001 -0.000001 1.0 1.0 1.0
-2.380190 0.975506 -0.975505 -1.000000 0.000001 -0.000001 1.0 1.0 1.0
-2.380192 -0.975505 -0.975505 -1.000000 0.000000 0.000000 1.0 1.0 1.0
-2.380192 -0.975505 0.975505 -1.000000 0.000000 0.000000 1.0 1.0 1.0
-2.380191 0.975505 0.975505 -1.000000 0.000000 0.000000 1.0 1.0 1.0
2.380191 0.975505 -0.975505 0.000000 1.000000 0.000001 1.0 1.0 1.0
-2.380190 0.975506 -0.975505 0.000000 1.000000 0.000001 1.0 1.0 1.0
-2.380191 0.975505 0.975505 0.000000 1.000000 0.000001 1.0 1.0 1.0
2.380193 0.975505 0.975505 -0.000000 1.000000 0.000000 1.0 1.0 1.0
2.380191 0.975505 -0.975505 -0.000000 1.000000 0.000000 1.0 1.0 1.0
-2.380191 0.975505 0.975505 -0.000000 1.000000 0.000000 1.0 1.0 1.0
3 0 1 2
3 1 3 2
3 4 5 6
3 4 6 7
3 8 9 10
3 9 11 10
3 12 13 14
3 15 16 17
3 18 19 20
3 19 21 20
3 22 23 24
3 23 25 24
3 26 27 28
3 29 26 28
3 30 31 32
3 33 30 32
3 34 35 36
3 37 38 39
3 40 41 42
3 43 44 45
3 46 47 48
3 49 50 51
3 52 53 54
3 55 56 57
