ply
format ascii 1.0
comment VCGLIB generated
element vertex 78
property float x
property float y
property float z
property float nx
property float ny
property float nz
element face 36
property list uchar int vertex_indices
end_header
1.98851 0.814976 -0.814976 0 0 1 
1.98851 -0.814976 -0.814976 0 0 1 
-1.98851 0.814976 -0.814976 0 0 1 
-1.98851 -0.814976 -0.814976 0 0 1 
-1.98851 -0.814976 0.814976 1 0 5.85094e-07 
-1.98851 0.814976 0.814976 1 0 5.85094e-07 
-1.98851 0.814976 -0.814976 1 0 5.85094e-07 
-1.98851 -0.814976 -0.814976 1 0 5.85094e-07 
1.98851 -0.814976 0.814976 0 6.21662e-07 -1 
1.98851 0.814976 0.814977 1.27392e-07 3.10831e-07 -1 
-1.98851 -0.814976 0.814976 1.27392e-07 3.10831e-07 -1 
-1.98851 0.814976 0.814976 2.54784e-07 0 -1 
1.98851 -0.814976 -0.814976 -1 1.24332e-06 0 
1.98851 0.814976 -0.814976 -1 1.24332e-06 0 
1.98851 -0.814976 0.814976 -1 1.24332e-06 0 
1.98851 0.814976 -0.814976 -1 7.70252e-13 -1.24332e-06 
1.98851 0.814976 0.814977 -1 7.70252e-13 -1.24332e-06 
1.98851 -0.814976 0.814976 -1 7.70252e-13 -1.24332e-06 
1.98851 0.814976 -0.814976 0 -1 0 
-1.98851 0.814976 -0.814976 0 -1 0 
1.98851 0.814976 0.814977 0 -1 0 
-1.98851 0.814976 0.814976 0 -1 0 
1.98851 -0.814976 -0.814976 0 1 0 
1.98851 -0.814976 0.814976 0 1 0 
-1.98851 -0.814976 -0.814976 0 1 0 
-1.98851 -0.814976 0.814976 0 1 0 
2.43996 1 -1 0 0 -1 
2.43996 -1 -1 0 0 -1 
-2.43996 1 -1 0 0 -1 
-2.43996 -1 -1 0 0 -1 
-2.43996 -1 1 -1 -2.38419e-07 -8.34465e-07 
-2.43996 1 1 -1 0 -5.96046e-07 
-2.43996 1 -1 -1 -2.38419e-07 -8.34465e-07 
-2.43996 -1 -1 -1 -4.76837e-07 -1.07288e-06 
2.43996 -1 1 0 -4.76837e-07 1 
2.43996 1 1 -9.77142e-08 -2.38419e-07 1 
-2.43996 -1 1 -9.77142e-08 -2.38419e-07 1 
-2.43996 1 1 -1.95428e-07 0 1 
2.43996 -1 -1 1 -1.07288e-06 0 
2.43996 1 -1 1 -1.07288e-06 0 
2.43996 -1 1 1 -1.07288e-06 0 
2.43996 1 -1 1 4.76836e-07 1.54972e-06 
2.43996 1 1 1 4.76836e-07 1.54972e-06 
2.43996 -1 1 1 4.76836e-07 1.54972e-06 
2.43996 1 -1 0 1 0 
-2.43996 1 -1 0 1 0 
2.43996 1 1 0 1 0 
-2.43996 1 1 0 1 0 
2.43996 -1 -1 0 -1 0 
2.43996 -1 1 0 -1 0 
-2.43996 -1 -1 0 -1 0 
-2.43996 -1 1 0 -1 0 
2.43996 1 -1 0 0 -1 
2.43996 -1 -1 0 0 -1 
-2.43996 1 -1 0 0 -1 
-2.43996 -1 -1 0 0 -1 
-2.43996 -1 1 -1 -2.38419e-07 -8.34465e-07 
-2.43996 1 1 -1 0 -5.96046e-07 
-2.43996 1 -1 -1 -2.38419e-07 -8.34465e-07 
-2.43996 -1 -1 -1 -4.76837e-07 -1.07288e-06 
2.43996 -1 1 0 -4.76837e-07 1 
2.43996 1 1 -9.77142e-08 -2.38419e-07 1 
-2.43996 -1 1 -9.77142e-08 -2.38419e-07 1 
-2.43996 1 1 -1.95428e-07 0 1 
2.43996 -1 -1 1 -1.07288e-06 0 
2.43996 1 -1 1 -1.07288e-06 0 
2.43996 -1 1 1 -1.07288e-06 0 
2.43996 1 -1 1 4.76836e-07 1.54972e-06 
2.43996 1 1 1 4.76836e-07 1.54972e-06 
2.43996 -1 1 1 4.76836e-07 1.54972e-06 
2.43996 1 -1 0 1 0 
-2.43996 1 -1 0 1 0 
2.43996 1 1 0 1 0 
-2.43996 1 1 0 1 0 
2.43996 -1 -1 0 -1 0 
2.43996 -1 1 0 -1 0 
-2.43996 -1 -1 0 -1 0 
-2.43996 -1 1 0 -1 0 
3 0 2 1 
3 1 2 3 
3 4 6 5 
3 4 7 6 
3 8 10 9 
3 9 10 11 
3 12 14 13 
3 15 17 16 
3 18 20 19 
3 19 20 21 
3 22 24 23 
3 23 24 25 
3 26 27 28 
3 27 29 28 
3 30 31 32 
3 30 32 33 
3 34 35 36 
3 35 37 36 
3 38 39 40 
3 41 42 43 
3 44 45 46 
3 45 47 46 
3 48 49 50 
3 49 51 50 
3 52 53 54 
3 53 55 54 
3 56 57 58 
3 56 58 59 
3 60 61 62 
3 61 63 62 
3 64 65 66 
3 67 68 69 
3 70 71 72 
3 71 73 72 
3 74 75 76 
3 75 77 76 
