ply
format ascii 1.0
comment Created by Blender 2.64 (sub 2) - www.blender.org, source file: ''
element vertex 158
property float x
property float y
property float z
property float nx
property float ny
property float nz
element face 69
property list uchar uint vertex_indices
end_header
-1.000000 1.000000 1.000000 -0.000000 1.000000 0.000000
-1.000000 1.000000 -1.000000 -0.000000 1.000000 0.000000
-2.681130 1.000000 -1.000000 -0.000000 1.000000 0.000000
-2.681130 1.000000 1.000000 -0.000000 1.000000 0.000000
1.000000 1.000000 1.000000 0.000000 1.000000 -0.000000
1.000000 1.000000 -1.000000 0.000000 1.000000 -0.000000
1.000000 1.000000 1.000000 1.000000 0.000000 -0.000000
1.000000 -1.000000 1.000000 1.000000 0.000000 -0.000000
1.000000 -1.000000 -1.000000 1.000000 0.000000 -0.000000
1.000000 1.000000 -1.000000 1.000000 0.000000 -0.000000
1.000000 -1.000000 1.000000 -0.000000 0.000000 1.000000
1.000000 1.000000 1.000000 -0.000000 0.000000 1.000000
-1.000000 1.000000 1.000000 -0.000000 0.000000 1.000000
-1.000000 -1.000000 1.000000 -0.000000 0.000000 1.000000
-2.681130 -1.000000 1.000000 -0.000000 0.000000 1.000000
-2.681130 1.000000 1.000000 -0.000000 0.000000 1.000000
-4.361841 1.000000 1.000000 -0.000000 0.000000 1.000000
-4.361841 -1.000000 1.000000 -0.000000 0.000000 1.000000
-1.000000 1.000000 -1.000000 -1.000000 0.000000 -0.000000
-1.000000 -1.000000 -1.000000 -1.000000 0.000000 -0.000000
-1.000000 -1.000000 1.000000 -1.000000 0.000000 -0.000000
-1.000000 1.000000 1.000000 -1.000000 0.000000 -0.000000
-1.000000 -1.000000 -2.690562 -0.000000 0.000000 -1.000000
-1.000000 1.000000 -2.690562 -0.000000 0.000000 -1.000000
1.000000 1.000000 -2.690562 -0.000000 0.000000 -1.000000
1.000000 -1.000000 -2.690562 -0.000000 0.000000 -1.000000
-2.681130 -1.000000 -2.690562 0.000000 0.000000 -1.000000
-2.681130 1.000000 -2.690562 0.000000 0.000000 -1.000000
-4.361841 -1.000000 -2.690562 0.000000 0.000000 -1.000000
-4.361841 1.000000 -2.690562 0.000000 0.000000 -1.000000
1.000000 1.000000 -2.690562 0.000000 1.000000 0.000000
-1.000000 1.000000 -2.690562 0.000000 1.000000 0.000000
-1.000000 -2.680711 -1.000000 -1.000000 0.000000 0.000000
-1.000000 -1.000000 -2.690562 -1.000000 0.000000 0.000000
-1.000000 -2.680711 -2.690562 -1.000000 0.000000 0.000000
1.000000 -1.000000 -2.690562 1.000000 0.000000 0.000000
1.000000 1.000000 -2.690562 1.000000 0.000000 0.000000
-2.681130 1.000000 -2.690562 0.000000 1.000000 0.000000
-1.000000 1.000000 -2.690562 -1.000000 0.000000 0.000000
1.000000 -2.680711 -2.690562 1.000000 -0.000000 0.000000
1.000000 -2.680711 -1.000000 1.000000 -0.000000 0.000000
1.000000 -4.361423 -1.000000 1.000000 -0.000000 0.000000
1.000000 -4.361423 -2.690562 1.000000 -0.000000 0.000000
-1.000000 -1.000000 -1.000000 0.000000 -0.000000 1.000000
-2.681130 -1.000000 -1.000000 0.000000 -0.000000 1.000000
-2.681130 -2.680711 -1.000000 0.000000 -0.000000 1.000000
-1.000000 -2.680711 -1.000000 0.000000 -0.000000 1.000000
-2.681130 -4.361423 -1.000000 0.000000 1.000000 0.000000
-4.361841 -4.361423 -1.000000 0.000000 1.000000 0.000000
-4.361841 -4.361423 1.000000 0.000000 1.000000 0.000000
-2.681130 -4.361423 1.000000 0.000000 1.000000 0.000000
-1.000000 -2.680711 -2.690562 0.000000 -0.000000 -1.000000
-2.681130 -2.680711 -2.690562 0.000000 -0.000000 -1.000000
-2.681130 -1.000000 -1.000000 0.000000 1.000000 -0.000000
-1.000000 -1.000000 -1.000000 0.000000 1.000000 -0.000000
-1.000000 -1.000000 -2.690562 0.000000 1.000000 -0.000000
-2.681130 -1.000000 -2.690562 0.000000 1.000000 -0.000000
-2.681130 -2.680711 1.000000 0.000000 -0.000000 1.000000
-1.000000 -2.680711 1.000000 0.000000 -0.000000 1.000000
-2.681130 -1.000000 -1.000000 0.000000 -1.000000 -0.000000
-1.000000 -1.000000 -1.000000 0.000000 -1.000000 -0.000000
-1.000000 -1.000000 1.000000 0.000000 -1.000000 -0.000000
-2.681130 -1.000000 1.000000 0.000000 -1.000000 -0.000000
1.000000 -1.000000 -1.000000 0.000000 1.000000 0.000000
1.000000 -1.000000 -2.690562 0.000000 1.000000 0.000000
1.000000 -1.000000 -1.000000 0.000000 -1.000000 -0.000000
1.000000 -1.000000 1.000000 0.000000 -1.000000 -0.000000
1.000000 -2.680711 1.000000 -1.000000 0.000000 0.000000
1.000000 -1.000000 1.000000 -1.000000 0.000000 0.000000
1.000000 -1.000000 -1.000000 -1.000000 0.000000 0.000000
1.000000 -2.680711 -1.000000 -1.000000 0.000000 0.000000
-1.000000 -1.000000 -1.000000 1.000000 -0.000000 0.000000
-1.000000 -1.000000 1.000000 1.000000 -0.000000 0.000000
-1.000000 -2.680711 1.000000 1.000000 -0.000000 0.000000
-1.000000 -2.680711 -1.000000 1.000000 -0.000000 0.000000
1.000000 -2.680711 -2.690562 0.000000 0.000000 -1.000000
-1.000000 -4.361423 -2.690562 0.000000 -0.000000 -1.000000
-2.681130 -4.361423 -2.690562 0.000000 -0.000000 -1.000000
-4.361841 1.000000 -2.690562 -0.000000 1.000000 0.000000
-4.361841 1.000000 -1.000000 -0.000000 1.000000 0.000000
1.000000 -4.361423 -2.690562 0.000000 0.000000 -1.000000
1.000000 -1.000000 -1.000000 0.000000 -0.000000 1.000000
1.000000 -2.680711 -1.000000 0.000000 -0.000000 1.000000
-2.681130 -4.361423 1.000000 0.000000 -0.000000 1.000000
-1.000000 -4.361423 1.000000 0.000000 -0.000000 1.000000
1.000000 -2.680711 1.000000 0.000000 -0.000000 1.000000
-1.000000 -4.361423 -1.000000 0.000000 -1.000000 0.000000
-2.681130 -4.361423 -1.000000 0.000000 -1.000000 0.000000
-2.681130 -4.361423 -2.690562 0.000000 -1.000000 0.000000
-1.000000 -4.361423 -2.690562 0.000000 -1.000000 0.000000
-1.000000 -4.361423 1.000000 0.000000 -1.000000 0.000000
-2.681130 -4.361423 1.000000 0.000000 -1.000000 0.000000
1.000000 -4.361423 -2.690562 0.000000 -1.000000 -0.000000
1.000000 -4.361423 -1.000000 0.000000 -1.000000 -0.000000
1.000000 -4.361423 1.000000 0.000000 -1.000000 0.000000
1.000000 -4.361423 1.000000 0.000000 -0.000000 1.000000
-4.361841 -2.680711 1.000000 0.000000 0.000000 1.000000
-4.361841 -4.361423 1.000000 0.000000 0.000000 1.000000
1.000000 -4.361423 1.000000 -1.000000 0.000000 0.000000
1.000000 -4.361423 -1.000000 -1.000000 0.000000 0.000000
-4.361841 -2.680711 -2.690562 0.000000 0.000000 -1.000000
-1.000000 -4.361423 -1.000000 1.000000 0.000000 0.000000
-1.000000 -4.361423 -2.690562 1.000000 0.000000 0.000000
-1.000000 -2.680711 -2.690562 1.000000 0.000000 0.000000
-1.000000 -4.361423 1.000000 1.000000 -0.000000 0.000000
-2.681130 -4.361423 -1.000000 0.000000 -0.000000 1.000000
-1.000000 -4.361423 -1.000000 0.000000 -0.000000 1.000000
1.000000 -4.361423 -1.000000 0.000000 0.000000 1.000000
-4.361841 -1.000000 1.000000 -1.000000 0.000000 0.000000
-4.361841 1.000000 1.000000 -1.000000 0.000000 0.000000
-4.361841 1.000000 -1.000000 -1.000000 0.000000 0.000000
-4.361841 -1.000000 -1.000000 -1.000000 0.000000 0.000000
-4.361841 1.000000 -2.690562 -1.000000 0.000000 -0.000000
-4.361841 -1.000000 -2.690562 -1.000000 0.000000 -0.000000
-4.361841 -2.680711 -2.690562 -1.000000 -0.000000 0.000000
-4.361841 -2.680711 -1.000000 -1.000000 -0.000000 0.000000
-4.361841 -2.680711 1.000000 -1.000000 -0.000000 0.000000
-4.361841 -4.361423 -1.000000 -1.000000 -0.000000 0.000000
-4.361841 -4.361423 1.000000 -1.000000 -0.000000 0.000000
-4.361841 -4.361423 -2.690562 -1.000000 -0.000000 0.000000
-4.361841 -4.361423 -1.000000 0.000000 -1.000000 0.000000
-4.361841 -4.361423 -2.690562 0.000000 -1.000000 0.000000
-4.361841 1.000000 1.000000 -0.000000 1.000000 0.000000
-4.361841 -4.361423 -2.690562 -0.000000 0.000000 -1.000000
-1.000000 1.000000 -1.000000 0.000000 0.000000 1.000000
-2.681130 1.000000 -1.000000 0.000000 0.000000 1.000000
-4.361841 1.000000 -1.000000 0.000000 -0.000000 1.000000
-4.361841 -1.000000 -1.000000 0.000000 -0.000000 1.000000
-2.681130 -1.000000 -2.690562 0.000000 -1.000000 0.000000
-4.361841 -1.000000 -1.000000 0.000000 -1.000000 0.000000
-4.361841 -1.000000 -2.690562 0.000000 -1.000000 0.000000
-4.361841 -2.680711 -1.000000 0.000000 -0.000000 1.000000
-2.681130 -1.000000 -1.000000 -1.000000 0.000000 0.000000
-2.681130 -1.000000 -2.690562 -1.000000 0.000000 0.000000
-2.681130 -2.680711 -2.690562 -1.000000 0.000000 0.000000
-2.681130 -2.680711 -1.000000 -1.000000 0.000000 0.000000
-2.681130 -2.680711 -2.690562 0.000000 1.000000 0.000000
-4.361841 -2.680711 -2.690562 0.000000 1.000000 0.000000
-4.361841 -2.680711 -1.000000 0.000000 1.000000 0.000000
-2.681130 -2.680711 -1.000000 0.000000 1.000000 0.000000
-4.361841 -4.361423 -1.000000 -0.000000 0.000000 1.000000
-2.681130 -2.680711 -1.000000 1.000000 0.000000 -0.000000
-2.681130 -4.361423 -1.000000 1.000000 0.000000 -0.000000
-2.681130 -4.361423 -2.690562 1.000000 0.000000 -0.000000
-2.681130 -2.680711 -2.690562 1.000000 0.000000 -0.000000
-2.681130 -2.680711 -1.000000 0.000000 -1.000000 0.000000
-2.681130 -2.680711 1.000000 0.000000 -1.000000 0.000000
-4.361841 -2.680711 1.000000 0.000000 -1.000000 0.000000
-4.361841 -2.680711 -1.000000 0.000000 -1.000000 0.000000
-2.681130 -4.361423 -1.000000 -1.000000 0.000000 -0.000000
-2.681130 -4.361423 1.000000 -1.000000 0.000000 -0.000000
-2.681130 -2.680711 1.000000 -1.000000 0.000000 -0.000000
-2.681130 -1.000000 -1.000000 1.000000 -0.000000 0.000000
-2.681130 -1.000000 1.000000 1.000000 -0.000000 0.000000
-2.681130 -2.680711 1.000000 1.000000 -0.000000 0.000000
-2.681130 1.000000 -1.000000 1.000000 0.000000 0.000000
-2.681130 1.000000 1.000000 1.000000 0.000000 0.000000
-4.361841 -1.000000 1.000000 0.000000 -1.000000 0.000000
4 0 1 2 3
4 0 4 5 1
4 6 7 8 9
4 10 11 12 13
4 14 15 16 17
4 13 12 15 14
4 18 19 20 21
4 22 23 24 25
4 23 22 26 27
4 27 26 28 29
4 30 31 1 5
4 32 19 33 34
4 35 36 9 8
4 31 37 2 1
4 19 18 38 33
4 39 40 41 42
4 43 44 45 46
4 47 48 49 50
4 51 52 26 22
4 53 54 55 56
4 13 14 57 58
4 59 60 61 62
4 35 8 40 39
4 55 54 63 64
4 60 65 66 61
4 67 68 69 70
4 71 72 73 74
4 22 25 75 51
4 76 77 52 51
4 2 37 78 79
4 51 75 80 76
4 81 43 46 82
4 58 57 83 84
4 10 13 58 85
4 86 87 88 89
4 86 90 91 87
4 89 92 93 86
4 94 90 86 93
4 85 58 84 95
4 96 97 83 57
4 98 67 70 99
4 26 52 100 28
4 101 102 103 74
4 74 73 104 101
4 46 45 105 106
4 46 106 107 82
4 108 109 110 111
4 112 113 111 110
4 114 115 111 113
4 115 116 108 111
4 117 118 116 115
4 119 117 115 114
4 57 14 17 96
4 88 87 120 121
4 3 2 79 122
4 123 100 52 77
4 44 43 124 125
4 125 126 127 44
4 128 59 129 130
4 44 127 131 45
4 132 133 134 135
4 136 137 138 139
4 105 45 131 140
4 141 142 143 144
4 145 146 147 148
4 135 149 150 151
4 152 153 154 141
4 152 155 156 153
4 62 157 129 59
