ply
format ascii 1.0
comment Created by Blender 2.64 (sub 2) - www.blender.org, source file: ''
element vertex 26
property float x
property float y
property float z
property float nx
property float ny
property float nz
element face 12
property list uchar uint vertex_indices
end_header
-1.571491 -0.219186 0.241739 0.000000 0.000000 1.000000
1.571491 0.219186 0.241739 0.000000 0.000000 1.000000
-1.571491 0.219186 0.241739 0.000000 0.000000 1.000000
-1.571492 -0.219185 -0.241739 -0.000000 0.000000 -1.000000
-1.571490 0.219186 -0.241739 -0.000000 0.000000 -1.000000
1.571491 -0.219186 -0.241739 -0.000000 0.000000 -1.000000
-1.571491 -0.219186 0.241739 -1.000000 0.000000 0.000001
-1.571491 0.219186 0.241739 -1.000000 0.000000 0.000001
-1.571492 -0.219185 -0.241739 -1.000000 0.000000 0.000001
-1.571491 0.219186 0.241739 0.000000 1.000000 0.000000
1.571491 0.219186 0.241739 0.000000 1.000000 0.000000
-1.571490 0.219186 -0.241739 0.000000 1.000000 0.000000
1.571491 0.219186 0.241739 1.000000 -0.000002 0.000001
1.571491 -0.219186 -0.241739 1.000000 -0.000002 0.000001
1.571492 0.219186 -0.241739 1.000000 -0.000002 0.000001
1.571491 -0.219186 0.241739 -0.000000 -1.000000 -0.000000
-1.571491 -0.219186 0.241739 -0.000000 -1.000000 -0.000000
-1.571492 -0.219185 -0.241739 -0.000000 -1.000000 -0.000000
1.571491 -0.219186 0.241739 0.000000 -0.000000 1.000000
1.571492 0.219186 -0.241739 -0.000000 -0.000000 -1.000000
-1.571492 -0.219185 -0.241739 -1.000000 0.000004 -0.000002
-1.571491 0.219186 0.241739 -1.000000 0.000004 -0.000002
-1.571490 0.219186 -0.241739 -1.000000 0.000004 -0.000002
1.571492 0.219186 -0.241739 0.000000 1.000000 -0.000000
1.571491 -0.219186 0.241739 1.000000 -0.000002 0.000001
1.571491 -0.219186 -0.241739 -0.000000 -1.000000 -0.000000
3 0 1 2
3 3 4 5
3 6 7 8
3 9 10 11
3 12 13 14
3 15 16 17
3 1 0 18
3 5 4 19
3 20 21 22
3 11 10 23
3 24 13 12
3 25 15 17
